G04 #@! TF.GenerationSoftware,KiCad,Pcbnew,5.1.12-84ad8e8a86~92~ubuntu16.04.1*
G04 #@! TF.CreationDate,2022-09-07T14:59:16-07:00*
G04 #@! TF.ProjectId,ELF_sensor,454c465f-7365-46e7-936f-722e6b696361,rev?*
G04 #@! TF.SameCoordinates,Original*
G04 #@! TF.FileFunction,Copper,L2,Bot*
G04 #@! TF.FilePolarity,Positive*
%FSLAX46Y46*%
G04 Gerber Fmt 4.6, Leading zero omitted, Abs format (unit mm)*
G04 Created by KiCad (PCBNEW 5.1.12-84ad8e8a86~92~ubuntu16.04.1) date 2022-09-07 14:59:16*
%MOMM*%
%LPD*%
G01*
G04 APERTURE LIST*
G04 #@! TA.AperFunction,ComponentPad*
%ADD10R,1.700000X1.700000*%
G04 #@! TD*
G04 #@! TA.AperFunction,ComponentPad*
%ADD11O,1.700000X1.700000*%
G04 #@! TD*
G04 #@! TA.AperFunction,ComponentPad*
%ADD12R,2.000000X2.000000*%
G04 #@! TD*
G04 #@! TA.AperFunction,ComponentPad*
%ADD13C,2.000000*%
G04 #@! TD*
G04 #@! TA.AperFunction,ComponentPad*
%ADD14C,1.850000*%
G04 #@! TD*
G04 #@! TA.AperFunction,ViaPad*
%ADD15C,0.800000*%
G04 #@! TD*
G04 #@! TA.AperFunction,Conductor*
%ADD16C,0.750000*%
G04 #@! TD*
G04 #@! TA.AperFunction,Conductor*
%ADD17C,1.000000*%
G04 #@! TD*
G04 #@! TA.AperFunction,Conductor*
%ADD18C,0.500000*%
G04 #@! TD*
G04 APERTURE END LIST*
D10*
G04 #@! TO.P,BT1,1*
G04 #@! TO.N,Net-(BT1-Pad1)*
X55250000Y-128500000D03*
D11*
G04 #@! TO.P,BT1,2*
G04 #@! TO.N,Net-(BT1-Pad2)*
X55250000Y-131040000D03*
G04 #@! TD*
D12*
G04 #@! TO.P,LS1,1*
G04 #@! TO.N,Net-(LS1-Pad1)*
X59862057Y-121362057D03*
D13*
G04 #@! TO.P,LS1,2*
G04 #@! TO.N,Net-(D2-Pad2)*
X74862057Y-121362057D03*
G04 #@! TD*
D14*
G04 #@! TO.P,L1,1*
G04 #@! TO.N,Net-(L1-Pad1)*
X101650000Y-113100000D03*
G04 #@! TO.P,L1,2*
G04 #@! TO.N,Net-(C2-Pad2)*
X104150000Y-113100000D03*
G04 #@! TD*
D15*
G04 #@! TO.N,Net-(C1-Pad1)*
X87500000Y-129500000D03*
X83750000Y-129500000D03*
G04 #@! TO.N,Net-(D1-Pad1)*
X86750000Y-124000000D03*
X92824638Y-130054222D03*
X83750000Y-114000000D03*
X94750000Y-117250000D03*
X100500000Y-116750000D03*
G04 #@! TO.N,Net-(D2-Pad2)*
X72250000Y-129500000D03*
X72250000Y-132250000D03*
G04 #@! TO.N,Net-(L1-Pad1)*
X79500000Y-114500000D03*
G04 #@! TO.N,Net-(LS1-Pad1)*
X96500000Y-117250000D03*
G04 #@! TD*
D16*
G04 #@! TO.N,Net-(C1-Pad1)*
X87500000Y-129500000D02*
X83750000Y-129500000D01*
G04 #@! TO.N,Net-(D1-Pad1)*
X86750000Y-124000000D02*
X88475001Y-125725001D01*
X88495417Y-125725001D02*
X92824638Y-130054222D01*
X88475001Y-125725001D02*
X88495417Y-125725001D01*
D17*
X83750000Y-114000000D02*
X87250000Y-114000000D01*
X87250000Y-114000000D02*
X90500000Y-117250000D01*
X90500000Y-117250000D02*
X94750000Y-117250000D01*
D16*
X100500000Y-116750000D02*
X99750000Y-116000000D01*
X96000000Y-116000000D02*
X94750000Y-117250000D01*
X99750000Y-116000000D02*
X96000000Y-116000000D01*
D18*
G04 #@! TO.N,Net-(D2-Pad2)*
X72250000Y-129500000D02*
X72250000Y-132250000D01*
D16*
G04 #@! TO.N,Net-(L1-Pad1)*
X100800000Y-112250000D02*
X101650000Y-113100000D01*
X81750000Y-112250000D02*
X100800000Y-112250000D01*
X79500000Y-114500000D02*
X81750000Y-112250000D01*
D18*
G04 #@! TO.N,Net-(LS1-Pad1)*
X59862057Y-121362057D02*
X59887943Y-121362057D01*
X59887943Y-121362057D02*
X62500000Y-118750000D01*
X62500000Y-118750000D02*
X94000000Y-118750000D01*
X95000000Y-118750000D02*
X96500000Y-117250000D01*
X94000000Y-118750000D02*
X95000000Y-118750000D01*
G04 #@! TD*
M02*
