G04 #@! TF.GenerationSoftware,KiCad,Pcbnew,5.1.12-84ad8e8a86~92~ubuntu16.04.1*
G04 #@! TF.CreationDate,2022-09-07T14:59:16-07:00*
G04 #@! TF.ProjectId,ELF_sensor,454c465f-7365-46e7-936f-722e6b696361,rev?*
G04 #@! TF.SameCoordinates,Original*
G04 #@! TF.FileFunction,Copper,L1,Top*
G04 #@! TF.FilePolarity,Positive*
%FSLAX46Y46*%
G04 Gerber Fmt 4.6, Leading zero omitted, Abs format (unit mm)*
G04 Created by KiCad (PCBNEW 5.1.12-84ad8e8a86~92~ubuntu16.04.1) date 2022-09-07 14:59:16*
%MOMM*%
%LPD*%
G01*
G04 APERTURE LIST*
G04 #@! TA.AperFunction,ComponentPad*
%ADD10R,1.700000X1.700000*%
G04 #@! TD*
G04 #@! TA.AperFunction,ComponentPad*
%ADD11O,1.700000X1.700000*%
G04 #@! TD*
G04 #@! TA.AperFunction,SMDPad,CuDef*
%ADD12R,1.270000X2.032000*%
G04 #@! TD*
G04 #@! TA.AperFunction,SMDPad,CuDef*
%ADD13R,0.900000X0.900000*%
G04 #@! TD*
G04 #@! TA.AperFunction,ComponentPad*
%ADD14R,2.000000X2.000000*%
G04 #@! TD*
G04 #@! TA.AperFunction,ComponentPad*
%ADD15C,2.000000*%
G04 #@! TD*
G04 #@! TA.AperFunction,SMDPad,CuDef*
%ADD16R,0.900000X0.800000*%
G04 #@! TD*
G04 #@! TA.AperFunction,SMDPad,CuDef*
%ADD17R,0.889000X0.889000*%
G04 #@! TD*
G04 #@! TA.AperFunction,SMDPad,CuDef*
%ADD18R,1.399540X0.599440*%
G04 #@! TD*
G04 #@! TA.AperFunction,SMDPad,CuDef*
%ADD19R,2.540000X1.270000*%
G04 #@! TD*
G04 #@! TA.AperFunction,SMDPad,CuDef*
%ADD20R,1.100000X1.100000*%
G04 #@! TD*
G04 #@! TA.AperFunction,SMDPad,CuDef*
%ADD21R,0.889000X0.762000*%
G04 #@! TD*
G04 #@! TA.AperFunction,ComponentPad*
%ADD22C,1.850000*%
G04 #@! TD*
G04 #@! TA.AperFunction,ViaPad*
%ADD23C,0.800000*%
G04 #@! TD*
G04 #@! TA.AperFunction,Conductor*
%ADD24C,1.000000*%
G04 #@! TD*
G04 #@! TA.AperFunction,Conductor*
%ADD25C,0.750000*%
G04 #@! TD*
G04 #@! TA.AperFunction,Conductor*
%ADD26C,0.500000*%
G04 #@! TD*
G04 APERTURE END LIST*
D10*
G04 #@! TO.P,BT1,1*
G04 #@! TO.N,Net-(BT1-Pad1)*
X55250000Y-128500000D03*
D11*
G04 #@! TO.P,BT1,2*
G04 #@! TO.N,Net-(BT1-Pad2)*
X55250000Y-131040000D03*
G04 #@! TD*
D12*
G04 #@! TO.P,C1,1*
G04 #@! TO.N,Net-(C1-Pad1)*
X83151000Y-127250000D03*
G04 #@! TO.P,C1,2*
G04 #@! TO.N,Net-(BT1-Pad2)*
X79849000Y-127250000D03*
G04 #@! TD*
D13*
G04 #@! TO.P,C2,1*
G04 #@! TO.N,Net-(C2-Pad1)*
X86238000Y-115750000D03*
G04 #@! TO.P,C2,2*
G04 #@! TO.N,Net-(C2-Pad2)*
X87762000Y-115750000D03*
G04 #@! TD*
D14*
G04 #@! TO.P,LS1,1*
G04 #@! TO.N,Net-(LS1-Pad1)*
X59862057Y-121362057D03*
D15*
G04 #@! TO.P,LS1,2*
G04 #@! TO.N,Net-(D2-Pad2)*
X74862057Y-121362057D03*
G04 #@! TD*
D16*
G04 #@! TO.P,Q1,1*
G04 #@! TO.N,Net-(C1-Pad1)*
X81750000Y-130050000D03*
G04 #@! TO.P,Q1,2*
G04 #@! TO.N,Net-(BT1-Pad2)*
X81750000Y-131950000D03*
G04 #@! TO.P,Q1,3*
G04 #@! TO.N,Net-(D2-Pad2)*
X83750000Y-131000000D03*
G04 #@! TD*
D17*
G04 #@! TO.P,R1,1*
G04 #@! TO.N,Net-(D1-Pad1)*
X88726000Y-127500000D03*
G04 #@! TO.P,R1,2*
G04 #@! TO.N,Net-(K1-Pad1)*
X90250000Y-127500000D03*
G04 #@! TD*
G04 #@! TO.P,R2,2*
G04 #@! TO.N,Net-(BT1-Pad2)*
X78750000Y-131762000D03*
G04 #@! TO.P,R2,1*
G04 #@! TO.N,Net-(C1-Pad1)*
X78750000Y-130238000D03*
G04 #@! TD*
G04 #@! TO.P,R3,1*
G04 #@! TO.N,Net-(D1-Pad1)*
X102238000Y-118650000D03*
G04 #@! TO.P,R3,2*
G04 #@! TO.N,Net-(D2-Pad1)*
X103762000Y-118650000D03*
G04 #@! TD*
G04 #@! TO.P,R4,2*
G04 #@! TO.N,Net-(L1-Pad1)*
X81500000Y-119012000D03*
G04 #@! TO.P,R4,1*
G04 #@! TO.N,Net-(D1-Pad1)*
X81500000Y-117488000D03*
G04 #@! TD*
G04 #@! TO.P,R5,1*
G04 #@! TO.N,Net-(L1-Pad1)*
X81500000Y-121726000D03*
G04 #@! TO.P,R5,2*
G04 #@! TO.N,Net-(D2-Pad2)*
X81500000Y-123250000D03*
G04 #@! TD*
G04 #@! TO.P,R6,2*
G04 #@! TO.N,Net-(C2-Pad1)*
X86500000Y-120250000D03*
G04 #@! TO.P,R6,1*
G04 #@! TO.N,Net-(R6-Pad1)*
X86500000Y-118726000D03*
G04 #@! TD*
G04 #@! TO.P,R7,1*
G04 #@! TO.N,Net-(LS1-Pad1)*
X99000000Y-117476000D03*
G04 #@! TO.P,R7,2*
G04 #@! TO.N,Net-(R7-Pad2)*
X99000000Y-119000000D03*
G04 #@! TD*
D18*
G04 #@! TO.P,U1,8*
G04 #@! TO.N,Net-(D1-Pad1)*
X94697480Y-118845000D03*
G04 #@! TO.P,U1,7*
G04 #@! TO.N,Net-(LS1-Pad1)*
X94697480Y-120115000D03*
G04 #@! TO.P,U1,6*
G04 #@! TO.N,Net-(R7-Pad2)*
X94697480Y-121385000D03*
G04 #@! TO.P,U1,5*
G04 #@! TO.N,Net-(R6-Pad1)*
X94697480Y-122655000D03*
G04 #@! TO.P,U1,4*
G04 #@! TO.N,Net-(D2-Pad2)*
X89302520Y-122655000D03*
G04 #@! TO.P,U1,3*
G04 #@! TO.N,Net-(L1-Pad1)*
X89302520Y-121385000D03*
G04 #@! TO.P,U1,2*
G04 #@! TO.N,Net-(C2-Pad1)*
X89302520Y-120115000D03*
G04 #@! TO.P,U1,1*
G04 #@! TO.N,Net-(R6-Pad1)*
X89302520Y-118845000D03*
G04 #@! TD*
D19*
G04 #@! TO.P,K1,4*
G04 #@! TO.N,Net-(K1-Pad1)*
X104827500Y-127591000D03*
G04 #@! TO.P,K1,3*
G04 #@! TO.N,Net-(C1-Pad1)*
X104827500Y-132109000D03*
G04 #@! TO.P,K1,2*
X95872500Y-132109000D03*
G04 #@! TO.P,K1,1*
G04 #@! TO.N,Net-(K1-Pad1)*
X95872500Y-127591000D03*
G04 #@! TD*
D20*
G04 #@! TO.P,D1,1*
G04 #@! TO.N,Net-(D1-Pad1)*
X55250000Y-111100000D03*
G04 #@! TO.P,D1,2*
G04 #@! TO.N,Net-(BT1-Pad1)*
X55250000Y-113900000D03*
G04 #@! TD*
D17*
G04 #@! TO.P,R8,1*
G04 #@! TO.N,Net-(R7-Pad2)*
X99000000Y-121726000D03*
G04 #@! TO.P,R8,2*
G04 #@! TO.N,Net-(L1-Pad1)*
X99000000Y-123250000D03*
G04 #@! TD*
D21*
G04 #@! TO.P,D2,2*
G04 #@! TO.N,Net-(D2-Pad2)*
X105500000Y-120162000D03*
G04 #@! TO.P,D2,1*
G04 #@! TO.N,Net-(D2-Pad1)*
X105500000Y-118638000D03*
G04 #@! TD*
D22*
G04 #@! TO.P,L1,1*
G04 #@! TO.N,Net-(L1-Pad1)*
X101650000Y-113100000D03*
G04 #@! TO.P,L1,2*
G04 #@! TO.N,Net-(C2-Pad2)*
X104150000Y-113100000D03*
G04 #@! TD*
D23*
G04 #@! TO.N,Net-(C1-Pad1)*
X87500000Y-129500000D03*
X83750000Y-129500000D03*
G04 #@! TO.N,Net-(D1-Pad1)*
X86750000Y-124000000D03*
X92824638Y-130054222D03*
X83750000Y-114000000D03*
X94750000Y-117250000D03*
X100500000Y-116750000D03*
G04 #@! TO.N,Net-(D2-Pad2)*
X72250000Y-129500000D03*
X72250000Y-132250000D03*
G04 #@! TO.N,Net-(L1-Pad1)*
X79500000Y-114500000D03*
G04 #@! TO.N,Net-(LS1-Pad1)*
X96500000Y-117250000D03*
G04 #@! TD*
D24*
G04 #@! TO.N,Net-(BT1-Pad1)*
X55250000Y-128500000D02*
X55250000Y-113900000D01*
D25*
G04 #@! TO.N,Net-(BT1-Pad2)*
X78750000Y-131762000D02*
X79738000Y-131762000D01*
X79926000Y-131950000D02*
X79738000Y-131762000D01*
X81750000Y-131950000D02*
X79926000Y-131950000D01*
D24*
X55250000Y-131040000D02*
X73040000Y-131040000D01*
X73040000Y-131040000D02*
X73750000Y-131750000D01*
X73750000Y-131750000D02*
X75000000Y-131750000D01*
D25*
X75012000Y-131762000D02*
X75000000Y-131750000D01*
X78750000Y-131762000D02*
X75012000Y-131762000D01*
D24*
X76830000Y-127250000D02*
X73040000Y-131040000D01*
X79849000Y-127250000D02*
X76830000Y-127250000D01*
G04 #@! TO.N,Net-(C1-Pad1)*
X104827500Y-132109000D02*
X95872500Y-132109000D01*
D25*
X78750000Y-130238000D02*
X79738000Y-130238000D01*
X79926000Y-130050000D02*
X79738000Y-130238000D01*
X81750000Y-130050000D02*
X79926000Y-130050000D01*
X81750000Y-130050000D02*
X81750000Y-130000000D01*
X83151000Y-128599000D02*
X83151000Y-127250000D01*
X95872500Y-132109000D02*
X95872500Y-131372500D01*
X82875000Y-128875000D02*
X83151000Y-128599000D01*
X95872500Y-131372500D02*
X93375000Y-128875000D01*
X81750000Y-130000000D02*
X82875000Y-128875000D01*
X93375000Y-128875000D02*
X92625000Y-128875000D01*
X92000000Y-129500000D02*
X87500000Y-129500000D01*
X92625000Y-128875000D02*
X92000000Y-129500000D01*
X83125000Y-128875000D02*
X82875000Y-128875000D01*
X83750000Y-129500000D02*
X83125000Y-128875000D01*
D26*
G04 #@! TO.N,Net-(C2-Pad1)*
X86635000Y-120115000D02*
X86500000Y-120250000D01*
X89302520Y-120115000D02*
X86635000Y-120115000D01*
D25*
X86500000Y-120250000D02*
X85750000Y-120250000D01*
X85750000Y-120250000D02*
X84750000Y-119250000D01*
X84750000Y-117238000D02*
X86238000Y-115750000D01*
X84750000Y-119250000D02*
X84750000Y-117238000D01*
G04 #@! TO.N,Net-(C2-Pad2)*
X101500000Y-115750000D02*
X104150000Y-113100000D01*
X87762000Y-115750000D02*
X101500000Y-115750000D01*
G04 #@! TO.N,Net-(D1-Pad1)*
X55250000Y-111100000D02*
X57900000Y-111100000D01*
D24*
X57900000Y-111100000D02*
X78600000Y-111100000D01*
X78600000Y-111100000D02*
X81500000Y-114000000D01*
X81500000Y-114000000D02*
X81500000Y-115000000D01*
X81500000Y-115000000D02*
X81500000Y-115750000D01*
D25*
X81500000Y-115750000D02*
X81500000Y-117488000D01*
X81900002Y-117488000D02*
X82750000Y-118337998D01*
X81500000Y-117488000D02*
X81900002Y-117488000D01*
X82750000Y-120000000D02*
X86750000Y-124000000D01*
X82750000Y-118337998D02*
X82750000Y-120000000D01*
D24*
X81500000Y-114000000D02*
X83750000Y-114000000D01*
D25*
X94750000Y-117250000D02*
X94750000Y-118500000D01*
D26*
X94697480Y-118552520D02*
X94750000Y-118500000D01*
X94697480Y-118845000D02*
X94697480Y-118552520D01*
D25*
X92128860Y-130750000D02*
X92824638Y-130054222D01*
X86750000Y-130750000D02*
X92128860Y-130750000D01*
X88726000Y-127500000D02*
X86750000Y-127500000D01*
X86750000Y-127500000D02*
X86250000Y-128000000D01*
X86250000Y-128000000D02*
X86250000Y-130250000D01*
X86250000Y-130250000D02*
X86750000Y-130750000D01*
X101000000Y-117250000D02*
X100500000Y-116750000D01*
X101000000Y-117412000D02*
X102238000Y-118650000D01*
X101000000Y-117250000D02*
X101000000Y-117412000D01*
G04 #@! TO.N,Net-(D2-Pad2)*
X81500000Y-123250000D02*
X81500000Y-124250000D01*
X81500000Y-124250000D02*
X82250000Y-125000000D01*
X82250000Y-125000000D02*
X84500000Y-125000000D01*
X84500000Y-125000000D02*
X85000000Y-125500000D01*
X84250000Y-131500000D02*
X83750000Y-131000000D01*
X89302520Y-125197480D02*
X88500000Y-126000000D01*
X86000000Y-126000000D02*
X85000000Y-127000000D01*
X88500000Y-126000000D02*
X86000000Y-126000000D01*
X85000000Y-125500000D02*
X85000000Y-127000000D01*
X89302520Y-125197480D02*
X89302520Y-123052520D01*
D26*
X89302520Y-123052520D02*
X89302520Y-122655000D01*
D25*
X85000000Y-130750000D02*
X85000000Y-127500000D01*
X85000000Y-127500000D02*
X85000000Y-127000000D01*
X84250000Y-131500000D02*
X85000000Y-130750000D01*
D26*
X72250000Y-132250000D02*
X73000000Y-133000000D01*
X82750000Y-133000000D02*
X84250000Y-131500000D01*
X73000000Y-133000000D02*
X82750000Y-133000000D01*
X74862057Y-126887943D02*
X72250000Y-129500000D01*
X74862057Y-121362057D02*
X74862057Y-126887943D01*
D25*
X101250000Y-126000000D02*
X88500000Y-126000000D01*
X105500000Y-120162000D02*
X105500000Y-123150000D01*
X105500000Y-123150000D02*
X105450000Y-123150000D01*
X102600000Y-126000000D02*
X101250000Y-126000000D01*
X105450000Y-123150000D02*
X102600000Y-126000000D01*
G04 #@! TO.N,Net-(D2-Pad1)*
X103774000Y-118638000D02*
X103762000Y-118650000D01*
X105500000Y-118638000D02*
X103774000Y-118638000D01*
G04 #@! TO.N,Net-(L1-Pad1)*
X81900002Y-121726000D02*
X83000000Y-122825998D01*
X81500000Y-121726000D02*
X81900002Y-121726000D01*
X83000000Y-122825998D02*
X83000000Y-123500000D01*
X83000000Y-123500000D02*
X83250000Y-123750000D01*
D26*
X86000000Y-125000000D02*
X84750000Y-123750000D01*
X87500000Y-125000000D02*
X86000000Y-125000000D01*
X89302520Y-121385000D02*
X88365000Y-121385000D01*
X84750000Y-123750000D02*
X83250000Y-123750000D01*
X88365000Y-121385000D02*
X88000000Y-121750000D01*
X88000000Y-121750000D02*
X88000000Y-124500000D01*
X88000000Y-124500000D02*
X87500000Y-125000000D01*
D25*
X79500000Y-114500000D02*
X79500000Y-118750000D01*
X79500000Y-118750000D02*
X81500000Y-120750000D01*
X81500000Y-120750000D02*
X81500000Y-121726000D01*
X81500000Y-119012000D02*
X81500000Y-120750000D01*
D26*
X90502290Y-121385000D02*
X93367290Y-124250000D01*
X89302520Y-121385000D02*
X90502290Y-121385000D01*
X98000000Y-124250000D02*
X99000000Y-123250000D01*
X93367290Y-124250000D02*
X98000000Y-124250000D01*
G04 #@! TO.N,Net-(LS1-Pad1)*
X98055500Y-117476000D02*
X97500000Y-118031500D01*
X99000000Y-117476000D02*
X98055500Y-117476000D01*
X97500000Y-118031500D02*
X97500000Y-119500000D01*
X96885000Y-120115000D02*
X94697480Y-120115000D01*
X97500000Y-119500000D02*
X96885000Y-120115000D01*
X97829500Y-117250000D02*
X98055500Y-117476000D01*
X96500000Y-117250000D02*
X97829500Y-117250000D01*
D24*
G04 #@! TO.N,Net-(K1-Pad1)*
X104827500Y-127591000D02*
X95872500Y-127591000D01*
D25*
X95781500Y-127500000D02*
X95872500Y-127591000D01*
X90250000Y-127500000D02*
X95781500Y-127500000D01*
D26*
G04 #@! TO.N,Net-(R6-Pad1)*
X86619000Y-118845000D02*
X86500000Y-118726000D01*
X89302520Y-118845000D02*
X86619000Y-118845000D01*
X94697480Y-122655000D02*
X93655000Y-122655000D01*
X93655000Y-122655000D02*
X91250000Y-120250000D01*
X89302520Y-118845000D02*
X90595000Y-118845000D01*
X91250000Y-119500000D02*
X91250000Y-120250000D01*
X90595000Y-118845000D02*
X91250000Y-119500000D01*
G04 #@! TO.N,Net-(R7-Pad2)*
X94697480Y-121385000D02*
X97865000Y-121385000D01*
X99000000Y-120250000D02*
X99000000Y-121726000D01*
X97865000Y-121385000D02*
X99000000Y-120250000D01*
X99000000Y-119000000D02*
X99000000Y-120250000D01*
G04 #@! TD*
M02*
